<svg width="26" height="26" viewBox="0 0 26 26" fill="none" xmlns="http://www.w3.org/2000/svg">
<path d="M21.7112 1.80005C23.0857 1.80005 24.2 2.8991 24.2 4.25484L24.2 8.4453C24.2 9.80105 23.0857 10.9001 21.7112 10.9001H17.9778C16.6033 10.9001 15.4889 9.80105 15.4889 8.4453L15.4889 4.25484C15.4889 2.8991 16.6032 1.80005 17.9778 1.80005L21.7112 1.80005Z" stroke="#388FF3" stroke-width="2.5" stroke-linecap="round" stroke-linejoin="round"/>
<path d="M4.28894 1.80005C2.91436 1.80005 1.80005 2.8991 1.80005 4.25484L1.80006 8.4453C1.80006 9.80105 2.91437 10.9001 4.28895 10.9001H8.02228C9.39685 10.9001 10.5112 9.80105 10.5112 8.4453L10.5112 4.25484C10.5112 2.8991 9.39684 1.80005 8.02227 1.80005L4.28894 1.80005Z" stroke="#388FF3" stroke-width="2.5" stroke-linecap="round" stroke-linejoin="round"/>
<path d="M21.7112 15.1001C23.0857 15.1001 24.2 16.1991 24.2 17.5549V21.7453C24.2 23.101 23.0857 24.2001 21.7112 24.2001H17.9778C16.6033 24.2001 15.4889 23.101 15.4889 21.7453L15.4889 17.5549C15.4889 16.1991 16.6033 15.1001 17.9778 15.1001H21.7112Z" stroke="#388FF3" stroke-width="2.5" stroke-linecap="round" stroke-linejoin="round"/>
<path d="M4.28895 15.1001C2.91437 15.1001 1.80006 16.1991 1.80006 17.5549L1.80006 21.7453C1.80006 23.101 2.91438 24.2001 4.28895 24.2001H8.02228C9.39686 24.2001 10.5112 23.101 10.5112 21.7453L10.5112 17.5549C10.5112 16.1991 9.39685 15.1001 8.02228 15.1001H4.28895Z" stroke="#388FF3" stroke-width="2.5" stroke-linecap="round" stroke-linejoin="round"/>
</svg>
