<svg width="278" height="40" viewBox="0 0 278 40" fill="none" xmlns="http://www.w3.org/2000/svg">
<rect width="278" height="40" rx="8" fill="#388FF3" fill-opacity="0.08"/>
<path d="M68.2195 18.2536H66.3601C66.3071 17.9486 66.2093 17.6785 66.0668 17.4432C65.9242 17.2045 65.7469 17.0024 65.5348 16.8366C65.3227 16.6709 65.0807 16.5466 64.8089 16.4638C64.5405 16.3776 64.2505 16.3345 63.9389 16.3345C63.3854 16.3345 62.8949 16.4737 62.4673 16.7521C62.0398 17.0272 61.705 17.4316 61.4631 17.9652C61.2211 18.4955 61.1001 19.1435 61.1001 19.9091C61.1001 20.688 61.2211 21.3442 61.4631 21.8778C61.7083 22.4081 62.0431 22.8092 62.4673 23.081C62.8949 23.3494 63.3838 23.4837 63.9339 23.4837C64.2389 23.4837 64.5239 23.4439 64.7891 23.3643C65.0575 23.2815 65.2978 23.1605 65.5099 23.0014C65.7254 22.8423 65.906 22.6468 66.0518 22.4148C66.201 22.1828 66.3037 21.9176 66.3601 21.6193L68.2195 21.6293C68.1499 22.1132 67.9991 22.5672 67.767 22.9915C67.5384 23.4157 67.2384 23.7902 66.8672 24.1151C66.496 24.4366 66.0618 24.6884 65.5646 24.8707C65.0675 25.0497 64.5156 25.1392 63.9091 25.1392C63.0142 25.1392 62.2154 24.9321 61.5128 24.5178C60.8101 24.1035 60.2566 23.5052 59.8523 22.723C59.4479 21.9408 59.2457 21.0028 59.2457 19.9091C59.2457 18.812 59.4496 17.8741 59.8572 17.0952C60.2649 16.313 60.8201 15.7147 61.5227 15.3004C62.2254 14.8861 63.0208 14.679 63.9091 14.679C64.4759 14.679 65.0028 14.7585 65.4901 14.9176C65.9773 15.0767 66.4115 15.3104 66.7926 15.6186C67.1738 15.9235 67.487 16.2981 67.7322 16.7422C67.9808 17.183 68.1432 17.6868 68.2195 18.2536ZM69.829 25V17.3636H71.6287V20.446H72.285L74.5819 17.3636H76.7495L73.9206 21.1122L76.7793 25H74.6017L72.5087 22.1214H71.6287V25H69.829ZM79.9972 25.1541C79.5133 25.1541 79.0774 25.0679 78.6896 24.8956C78.3052 24.7199 78.0002 24.4614 77.7749 24.12C77.5528 23.7786 77.4418 23.3577 77.4418 22.8572C77.4418 22.4264 77.5213 22.0701 77.6804 21.7884C77.8395 21.5066 78.0566 21.2812 78.3317 21.1122C78.6068 20.9432 78.9167 20.8156 79.2614 20.7294C79.6094 20.6399 79.969 20.5753 80.3402 20.5355C80.7876 20.4891 81.1506 20.4477 81.429 20.4112C81.7074 20.3714 81.9096 20.3118 82.0355 20.2322C82.1648 20.1494 82.2294 20.0218 82.2294 19.8494V19.8196C82.2294 19.4451 82.1184 19.1551 81.8963 18.9496C81.6742 18.7441 81.3544 18.6413 80.9368 18.6413C80.496 18.6413 80.1463 18.7375 79.8878 18.9297C79.6326 19.1219 79.4602 19.349 79.3707 19.6108L77.6903 19.3722C77.8229 18.9081 78.0417 18.5204 78.3466 18.2088C78.6515 17.8939 79.0244 17.6586 79.4652 17.5028C79.906 17.3438 80.3932 17.2642 80.9268 17.2642C81.2947 17.2642 81.661 17.3073 82.0256 17.3935C82.3902 17.4796 82.7232 17.6222 83.0249 17.821C83.3265 18.0166 83.5684 18.2834 83.7507 18.6214C83.9363 18.9595 84.0291 19.3821 84.0291 19.8892V25H82.299V23.951H82.2393C82.13 24.1631 81.9759 24.362 81.777 24.5476C81.5814 24.7299 81.3345 24.8774 81.0362 24.9901C80.7412 25.0994 80.3949 25.1541 79.9972 25.1541ZM80.4645 23.8317C80.8258 23.8317 81.139 23.7604 81.4041 23.6179C81.6693 23.4721 81.8731 23.2798 82.0156 23.0412C82.1615 22.8026 82.2344 22.5424 82.2344 22.2607V21.3608C82.178 21.4072 82.0819 21.4503 81.946 21.4901C81.8134 21.5298 81.6643 21.5646 81.4986 21.5945C81.3329 21.6243 81.1688 21.6508 81.0064 21.674C80.844 21.6972 80.7031 21.7171 80.5838 21.7337C80.3153 21.7701 80.075 21.8298 79.8629 21.9126C79.6508 21.9955 79.4834 22.1115 79.3608 22.2607C79.2382 22.4065 79.1768 22.5954 79.1768 22.8274C79.1768 23.1589 79.2978 23.4091 79.5398 23.5781C79.7817 23.7472 80.09 23.8317 80.4645 23.8317ZM92.2173 17.3636V25H90.4872V17.3636H92.2173ZM91.407 20.8139V22.2855C91.2114 22.3717 90.9893 22.4496 90.7408 22.5192C90.4955 22.5855 90.2353 22.6385 89.9602 22.6783C89.6884 22.718 89.4167 22.7379 89.1449 22.7379C88.1241 22.7379 87.317 22.5092 86.7237 22.0518C86.1338 21.5911 85.8388 20.8736 85.8388 19.8991V17.3537H87.5589V19.8991C87.5589 20.2273 87.617 20.4908 87.733 20.6896C87.849 20.8885 88.0246 21.0343 88.2599 21.1271C88.4953 21.2166 88.7902 21.2614 89.1449 21.2614C89.5426 21.2614 89.9205 21.2216 90.2784 21.142C90.6364 21.0625 91.0125 20.9531 91.407 20.8139ZM96.2257 25.1541C95.7418 25.1541 95.3059 25.0679 94.9181 24.8956C94.5337 24.7199 94.2288 24.4614 94.0034 24.12C93.7813 23.7786 93.6703 23.3577 93.6703 22.8572C93.6703 22.4264 93.7498 22.0701 93.9089 21.7884C94.068 21.5066 94.2851 21.2812 94.5602 21.1122C94.8353 20.9432 95.1452 20.8156 95.4899 20.7294C95.8379 20.6399 96.1975 20.5753 96.5687 20.5355C97.0162 20.4891 97.3791 20.4477 97.6575 20.4112C97.9359 20.3714 98.1381 20.3118 98.264 20.2322C98.3933 20.1494 98.4579 20.0218 98.4579 19.8494V19.8196C98.4579 19.4451 98.3469 19.1551 98.1248 18.9496C97.9028 18.7441 97.5829 18.6413 97.1653 18.6413C96.7245 18.6413 96.3748 18.7375 96.1163 18.9297C95.8611 19.1219 95.6887 19.349 95.5993 19.6108L93.9189 19.3722C94.0514 18.9081 94.2702 18.5204 94.5751 18.2088C94.88 17.8939 95.2529 17.6586 95.6937 17.5028C96.1345 17.3438 96.6217 17.2642 97.1554 17.2642C97.5233 17.2642 97.8895 17.3073 98.2541 17.3935C98.6187 17.4796 98.9518 17.6222 99.2534 17.821C99.555 18.0166 99.7969 18.2834 99.9792 18.6214C100.165 18.9595 100.258 19.3821 100.258 19.8892V25H98.5275V23.951H98.4679C98.3585 24.1631 98.2044 24.362 98.0055 24.5476C97.81 24.7299 97.563 24.8774 97.2647 24.9901C96.9698 25.0994 96.6234 25.1541 96.2257 25.1541ZM96.693 23.8317C97.0543 23.8317 97.3675 23.7604 97.6326 23.6179C97.8978 23.4721 98.1016 23.2798 98.2441 23.0412C98.39 22.8026 98.4629 22.5424 98.4629 22.2607V21.3608C98.4065 21.4072 98.3104 21.4503 98.1745 21.4901C98.042 21.5298 97.8928 21.5646 97.7271 21.5945C97.5614 21.6243 97.3973 21.6508 97.2349 21.674C97.0725 21.6972 96.9316 21.7171 96.8123 21.7337C96.5439 21.7701 96.3036 21.8298 96.0914 21.9126C95.8793 21.9955 95.7119 22.1115 95.5893 22.2607C95.4667 22.4065 95.4054 22.5954 95.4054 22.8274C95.4054 23.1589 95.5263 23.4091 95.7683 23.5781C96.0102 23.7472 96.3185 23.8317 96.693 23.8317ZM101.212 18.8402V17.3636H107.894V18.8402H105.423V25H103.683V18.8402H101.212ZM110.545 19.8494H112.797C113.772 19.8494 114.526 20.0864 115.059 20.5604C115.593 21.0343 115.861 21.6558 115.865 22.4247C115.861 22.9252 115.739 23.3693 115.497 23.7571C115.258 24.1449 114.91 24.4498 114.453 24.6719C113.999 24.8906 113.447 25 112.797 25H109.327V17.3636H111.062V23.5234H112.797C113.188 23.5234 113.51 23.424 113.762 23.2251C114.014 23.023 114.14 22.7644 114.14 22.4496C114.14 22.1181 114.014 21.848 113.762 21.6392C113.51 21.4304 113.188 21.326 112.797 21.326H110.545V19.8494ZM120.88 25V17.3636H124.086C124.991 17.3636 125.706 17.5443 126.229 17.9055C126.756 18.2668 127.02 18.7706 127.02 19.4169C127.02 19.8445 126.871 20.1941 126.572 20.4659C126.277 20.7344 125.875 20.915 125.364 21.0078C125.765 21.041 126.117 21.142 126.418 21.3111C126.723 21.4801 126.962 21.7022 127.134 21.9773C127.306 22.2524 127.393 22.5689 127.393 22.9268C127.393 23.3478 127.282 23.714 127.059 24.0256C126.841 24.3338 126.521 24.5741 126.1 24.7464C125.682 24.9155 125.175 25 124.579 25H120.88ZM122.565 23.5831H124.579C124.91 23.5831 125.17 23.5052 125.359 23.3494C125.548 23.1903 125.643 22.9749 125.643 22.7031C125.643 22.3883 125.548 22.1413 125.359 21.9624C125.17 21.7801 124.91 21.6889 124.579 21.6889H122.565V23.5831ZM122.565 20.5256H124.121C124.367 20.5256 124.577 20.4908 124.753 20.4212C124.928 20.3482 125.063 20.2472 125.155 20.1179C125.248 19.9853 125.295 19.8279 125.295 19.6456C125.295 19.3838 125.187 19.1783 124.971 19.0291C124.759 18.88 124.464 18.8054 124.086 18.8054H122.565V20.5256ZM137.402 17.3636V18.8402H134.11V25H132.35V17.3636H137.402ZM140.728 25.1541C140.244 25.1541 139.808 25.0679 139.42 24.8956C139.036 24.7199 138.731 24.4614 138.505 24.12C138.283 23.7786 138.172 23.3577 138.172 22.8572C138.172 22.4264 138.252 22.0701 138.411 21.7884C138.57 21.5066 138.787 21.2812 139.062 21.1122C139.337 20.9432 139.647 20.8156 139.992 20.7294C140.34 20.6399 140.699 20.5753 141.071 20.5355C141.518 20.4891 141.881 20.4477 142.159 20.4112C142.438 20.3714 142.64 20.3118 142.766 20.2322C142.895 20.1494 142.96 20.0218 142.96 19.8494V19.8196C142.96 19.4451 142.849 19.1551 142.627 18.9496C142.405 18.7441 142.085 18.6413 141.667 18.6413C141.226 18.6413 140.877 18.7375 140.618 18.9297C140.363 19.1219 140.191 19.349 140.101 19.6108L138.421 19.3722C138.553 18.9081 138.772 18.5204 139.077 18.2088C139.382 17.8939 139.755 17.6586 140.196 17.5028C140.636 17.3438 141.124 17.2642 141.657 17.2642C142.025 17.2642 142.391 17.3073 142.756 17.3935C143.121 17.4796 143.454 17.6222 143.755 17.821C144.057 18.0166 144.299 18.2834 144.481 18.6214C144.667 18.9595 144.76 19.3821 144.76 19.8892V25H143.029V23.951H142.97C142.86 24.1631 142.706 24.362 142.507 24.5476C142.312 24.7299 142.065 24.8774 141.767 24.9901C141.472 25.0994 141.125 25.1541 140.728 25.1541ZM141.195 23.8317C141.556 23.8317 141.869 23.7604 142.135 23.6179C142.4 23.4721 142.604 23.2798 142.746 23.0412C142.892 22.8026 142.965 22.5424 142.965 22.2607V21.3608C142.908 21.4072 142.812 21.4503 142.676 21.4901C142.544 21.5298 142.395 21.5646 142.229 21.5945C142.063 21.6243 141.899 21.6508 141.737 21.674C141.574 21.6972 141.434 21.7171 141.314 21.7337C141.046 21.7701 140.806 21.8298 140.593 21.9126C140.381 21.9955 140.214 22.1115 140.091 22.2607C139.969 22.4065 139.907 22.5954 139.907 22.8274C139.907 23.1589 140.028 23.4091 140.27 23.5781C140.512 23.7472 140.82 23.8317 141.195 23.8317ZM146.042 25L146.032 23.5185H146.296C146.495 23.5185 146.662 23.4737 146.798 23.3842C146.934 23.2947 147.047 23.1456 147.136 22.9368C147.225 22.7247 147.295 22.4396 147.345 22.0817C147.395 21.7237 147.429 21.2779 147.449 20.7443L147.583 17.3636H153.152V25H151.412V18.8402H149.219L149.1 21.3011C149.07 21.9375 148.999 22.4893 148.886 22.9567C148.777 23.4207 148.621 23.8035 148.419 24.1051C148.22 24.4067 147.97 24.6321 147.668 24.7812C147.366 24.9271 147.01 25 146.599 25H146.042ZM158.344 25.1491C157.579 25.1491 156.918 24.9901 156.361 24.6719C155.807 24.3504 155.381 23.8963 155.083 23.3097C154.785 22.7197 154.636 22.0253 154.636 21.2266C154.636 20.4411 154.785 19.7517 155.083 19.1584C155.385 18.5618 155.806 18.0978 156.346 17.7663C156.886 17.4316 157.521 17.2642 158.25 17.2642C158.721 17.2642 159.165 17.3404 159.582 17.4929C160.003 17.642 160.375 17.8741 160.696 18.1889C161.021 18.5038 161.276 18.9048 161.462 19.392C161.647 19.8759 161.74 20.4527 161.74 21.1222V21.674H155.481V20.4609H160.015C160.012 20.1162 159.937 19.8097 159.791 19.5412C159.645 19.2694 159.442 19.0556 159.18 18.8999C158.921 18.7441 158.62 18.6662 158.275 18.6662C157.907 18.6662 157.584 18.7557 157.305 18.9347C157.027 19.1103 156.81 19.3423 156.654 19.6307C156.502 19.9157 156.424 20.2289 156.42 20.5703V21.6293C156.42 22.0734 156.502 22.4545 156.664 22.7727C156.826 23.0876 157.054 23.3295 157.345 23.4986C157.637 23.6643 157.978 23.7472 158.369 23.7472C158.631 23.7472 158.868 23.7107 159.08 23.6378C159.292 23.5616 159.476 23.4505 159.632 23.3047C159.788 23.1589 159.906 22.9782 159.985 22.7628L161.665 22.9517C161.559 23.3958 161.357 23.7836 161.059 24.1151C160.764 24.4432 160.386 24.6984 159.925 24.8807C159.465 25.0597 158.938 25.1491 158.344 25.1491ZM163.263 27.8636V17.3636H165.032V18.6264H165.137C165.23 18.4408 165.361 18.2436 165.53 18.0348C165.699 17.8227 165.927 17.642 166.216 17.4929C166.504 17.3404 166.872 17.2642 167.319 17.2642C167.909 17.2642 168.441 17.415 168.915 17.7166C169.393 18.0149 169.77 18.4574 170.049 19.044C170.331 19.6274 170.471 20.3433 170.471 21.1918C170.471 22.0303 170.334 22.7429 170.059 23.3295C169.784 23.9162 169.409 24.3636 168.935 24.6719C168.461 24.9801 167.924 25.1342 167.324 25.1342C166.887 25.1342 166.524 25.0613 166.236 24.9155C165.947 24.7696 165.715 24.594 165.54 24.3885C165.367 24.1797 165.233 23.9825 165.137 23.7969H165.062V27.8636H163.263ZM165.028 21.1818C165.028 21.6757 165.097 22.1082 165.236 22.4794C165.379 22.8506 165.583 23.1406 165.848 23.3494C166.116 23.5549 166.441 23.6577 166.822 23.6577C167.22 23.6577 167.553 23.5516 167.822 23.3395C168.09 23.1241 168.292 22.8307 168.428 22.4595C168.567 22.085 168.637 21.6591 168.637 21.1818C168.637 20.7079 168.569 20.2869 168.433 19.919C168.297 19.5511 168.095 19.2628 167.827 19.054C167.558 18.8452 167.223 18.7408 166.822 18.7408C166.438 18.7408 166.111 18.8419 165.843 19.044C165.574 19.2462 165.371 19.5296 165.231 19.8942C165.095 20.2588 165.028 20.688 165.028 21.1818ZM175.393 25.1491C174.628 25.1491 173.966 24.9901 173.41 24.6719C172.856 24.3504 172.43 23.8963 172.132 23.3097C171.834 22.7197 171.684 22.0253 171.684 21.2266C171.684 20.4411 171.834 19.7517 172.132 19.1584C172.434 18.5618 172.854 18.0978 173.395 17.7663C173.935 17.4316 174.57 17.2642 175.299 17.2642C175.769 17.2642 176.214 17.3404 176.631 17.4929C177.052 17.642 177.423 17.8741 177.745 18.1889C178.07 18.5038 178.325 18.9048 178.51 19.392C178.696 19.8759 178.789 20.4527 178.789 21.1222V21.674H172.53V20.4609H177.064C177.06 20.1162 176.986 19.8097 176.84 19.5412C176.694 19.2694 176.49 19.0556 176.229 18.8999C175.97 18.7441 175.668 18.6662 175.324 18.6662C174.956 18.6662 174.633 18.7557 174.354 18.9347C174.076 19.1103 173.859 19.3423 173.703 19.6307C173.55 19.9157 173.473 20.2289 173.469 20.5703V21.6293C173.469 22.0734 173.55 22.4545 173.713 22.7727C173.875 23.0876 174.102 23.3295 174.394 23.4986C174.686 23.6643 175.027 23.7472 175.418 23.7472C175.68 23.7472 175.917 23.7107 176.129 23.6378C176.341 23.5616 176.525 23.4505 176.681 23.3047C176.837 23.1589 176.954 22.9782 177.034 22.7628L178.714 22.9517C178.608 23.3958 178.406 23.7836 178.108 24.1151C177.813 24.4432 177.435 24.6984 176.974 24.8807C176.514 25.0597 175.987 25.1491 175.393 25.1491ZM184.343 20.4908V21.9723H180.232V20.4908H184.343ZM181.659 17.3636V25H179.854V17.3636H181.659ZM186.65 25.1491C185.914 25.1491 185.276 24.9818 184.736 24.647C184.199 24.3123 183.783 23.8482 183.488 23.255C183.193 22.6617 183.046 21.9756 183.046 21.1967C183.046 20.4179 183.193 19.7334 183.488 19.1435C183.783 18.5535 184.199 18.0928 184.736 17.7614C185.276 17.4299 185.914 17.2642 186.65 17.2642C187.383 17.2642 188.017 17.4299 188.554 17.7614C189.095 18.0928 189.512 18.5535 189.807 19.1435C190.105 19.7334 190.255 20.4179 190.255 21.1967C190.255 21.9756 190.105 22.6617 189.807 23.255C189.512 23.8482 189.095 24.3123 188.554 24.647C188.017 24.9818 187.383 25.1491 186.65 25.1491ZM186.65 23.6577C187.084 23.6577 187.439 23.5483 187.714 23.3295C187.989 23.1108 188.191 22.8158 188.321 22.4446C188.45 22.0734 188.515 21.6574 188.515 21.1967C188.515 20.736 188.45 20.3201 188.321 19.9489C188.191 19.5777 187.989 19.2843 187.714 19.0689C187.439 18.8501 187.084 18.7408 186.65 18.7408C186.213 18.7408 185.855 18.8501 185.576 19.0689C185.301 19.2843 185.099 19.5777 184.97 19.9489C184.841 20.3201 184.776 20.736 184.776 21.1967C184.776 21.6607 184.841 22.0784 184.97 22.4496C185.099 22.8208 185.301 23.1158 185.576 23.3345C185.855 23.55 186.213 23.6577 186.65 23.6577Z" fill="#388FF3"/>
<path d="M205.857 23.4176H203.296C201.673 23.4176 200.357 22.3107 200.357 20.6877C200.357 19.0646 201.673 17.7489 203.296 17.7489C203.406 17.7489 203.515 17.755 203.622 17.7668V17.7489H203.663C203.636 17.535 203.622 17.317 203.622 17.0958C203.622 14.2104 205.962 11.8713 208.847 11.8713C210.801 11.8713 212.504 12.944 213.4 14.5325C213.619 14.5003 213.844 14.4836 214.071 14.4836C216.596 14.4836 218.643 16.5303 218.643 19.055C218.643 21.358 216.94 23.0545 214.725 23.3713H212.357M209.174 18.0754V28.1286M209.174 28.1286L206.857 25.8713M209.174 28.1286L211.429 25.8713" stroke="#388FF3" stroke-width="2" stroke-linecap="round" stroke-linejoin="round"/>
</svg>
