<svg width="21.303711" height="17.007812" viewBox="0 0 21.3037 17.0078" fill="none" xmlns="http://www.w3.org/2000/svg" xmlns:xlink="http://www.w3.org/1999/xlink">
	<desc>
			Created with Pixso.
	</desc>
	<defs/>
	<path id="Icon" d="M9.45312 1.66748C9.83691 1.62598 10.2363 1.604 10.6523 1.604C18.0684 1.604 20.2529 8.58008 20.2529 8.58008C20.2529 8.58008 19.918 9.58862 19.0918 10.8257M16.0527 13.8533C14.6758 14.7319 12.9023 15.3535 10.6523 15.3167C3.33008 15.1968 1.05273 8.58008 1.05273 8.58008C1.05273 8.58008 2.11035 5.2019 5.25293 3.14722M12.2451 10.2373C11.8213 10.6033 11.2637 10.8257 10.6523 10.8257C9.32715 10.8257 8.25293 9.78003 8.25293 8.49023C8.25293 7.89795 8.47949 7.35718 8.85254 6.94556M19.0527 16.0039L4.05273 1.00391" stroke="#8E9297" stroke-opacity="1.000000" stroke-width="2.000000"/>
</svg>
