<svg width="250" height="40" viewBox="0 0 250 40" fill="none" xmlns="http://www.w3.org/2000/svg">
<rect width="250" height="40" rx="8" fill="#388FF3"/>
<path d="M64.2194 25.6425C64.2194 25.6425 63.2539 26.5909 63.0173 26.8689C62.6318 27.2802 62.1777 27.4745 61.5823 27.4745C61.525 27.4745 61.464 27.4745 61.4067 27.4706C60.2733 27.3983 59.2199 26.9565 58.4299 26.5794C56.2698 25.5359 54.3731 24.0543 52.7969 22.1767C51.4955 20.6113 50.6254 19.1641 50.0491 17.6101C49.6942 16.6618 49.5644 15.9229 49.6217 15.2259C49.6598 14.7803 49.8316 14.4109 50.1483 14.0948L51.4497 12.796C51.6367 12.6209 51.8352 12.5256 52.0298 12.5256C52.2702 12.5256 52.4649 12.6704 52.587 12.7922C52.5908 12.796 52.5946 12.7999 52.5985 12.8037C52.8313 13.0208 53.0526 13.2455 53.2854 13.4854C53.4037 13.6073 53.5258 13.7292 53.648 13.8548L54.6899 14.8946C55.0944 15.2983 55.0944 15.6716 54.6899 16.0753C54.5792 16.1857 54.4723 16.2962 54.3616 16.4028C54.0411 16.7303 54.2929 16.479 53.9609 16.7761C53.9532 16.7837 53.9456 16.7875 53.9418 16.7951C53.6136 17.1227 53.6746 17.4426 53.7433 17.6597C53.7471 17.6711 53.751 17.6826 53.7548 17.694C54.0257 18.3491 54.4074 18.9661 54.9875 19.7011L54.9913 19.7049C56.0446 20.9999 57.1552 22.0091 58.3803 22.7823C58.5367 22.8813 58.697 22.9613 58.8497 23.0375C58.9871 23.106 59.1168 23.1708 59.2275 23.2393C59.2428 23.2469 59.258 23.2584 59.2733 23.266C59.4031 23.3307 59.5252 23.3612 59.6511 23.3612C59.9679 23.3612 60.1664 23.1632 60.2312 23.0984L60.9793 22.3519C61.1091 22.2224 61.3151 22.0662 61.5556 22.0662C61.7922 22.0662 61.9868 22.2148 62.1051 22.3442C62.109 22.3481 62.109 22.3481 62.1128 22.3519L64.2156 24.4504C64.6087 24.8389 64.2194 25.6425 64.2194 25.6425Z" stroke="white" stroke-width="2" stroke-linecap="round" stroke-linejoin="round"/>
<path d="M78.9276 23.3693V16.4886H80.4886V23.3693H78.9276ZM76.2678 20.7095V19.1484H83.1484V20.7095H76.2678ZM88.8596 14.679C89.3468 14.6823 89.8207 14.7685 90.2814 14.9375C90.7454 15.1032 91.1631 15.375 91.5343 15.7528C91.9055 16.1274 92.2005 16.6295 92.4192 17.2592C92.638 17.889 92.7473 18.6679 92.7473 19.5959C92.7507 20.4709 92.6578 21.2531 92.4689 21.9425C92.2833 22.6286 92.0165 23.2086 91.6685 23.6825C91.3205 24.1565 90.9012 24.5178 90.4107 24.7663C89.9202 25.0149 89.3683 25.1392 88.7551 25.1392C88.1122 25.1392 87.5421 25.0133 87.0449 24.7614C86.5511 24.5095 86.1517 24.1648 85.8468 23.7273C85.5418 23.2898 85.3546 22.7893 85.285 22.2259H87.0996C87.1924 22.6302 87.3813 22.9517 87.6664 23.1903C87.9547 23.4257 88.3176 23.5433 88.7551 23.5433C89.4611 23.5433 90.0047 23.2367 90.3858 22.6236C90.767 22.0104 90.9576 21.1586 90.9576 20.0682H90.888C90.7256 20.3598 90.5151 20.6117 90.2566 20.8239C89.998 21.0327 89.7047 21.1934 89.3766 21.3061C89.0518 21.4188 88.7071 21.4751 88.3425 21.4751C87.7459 21.4751 87.209 21.3326 86.7317 21.0476C86.2578 20.7625 85.8816 20.3714 85.6032 19.8743C85.3281 19.3771 85.1889 18.8087 85.1855 18.169C85.1855 17.5062 85.338 16.9112 85.6429 16.3842C85.9512 15.8539 86.3804 15.4363 86.9306 15.1314C87.4808 14.8232 88.1238 14.6723 88.8596 14.679ZM88.8645 16.1705C88.5066 16.1705 88.1834 16.2583 87.8951 16.4339C87.61 16.6063 87.3846 16.8416 87.2189 17.1399C87.0565 17.4349 86.9753 17.7647 86.9753 18.1293C86.9786 18.4905 87.0598 18.8187 87.2189 19.1136C87.3813 19.4086 87.6017 19.6423 87.8801 19.8146C88.1619 19.987 88.4834 20.0732 88.8446 20.0732C89.1131 20.0732 89.3633 20.0218 89.5953 19.919C89.8274 19.8163 90.0295 19.6738 90.2019 19.4915C90.3775 19.3059 90.5134 19.0954 90.6096 18.8601C90.709 18.6248 90.757 18.3762 90.7537 18.1143C90.7537 17.7663 90.6709 17.4448 90.5051 17.1499C90.3427 16.8549 90.119 16.6179 89.834 16.4389C89.5523 16.2599 89.2291 16.1705 88.8645 16.1705ZM97.9377 14.679C98.4249 14.6823 98.8989 14.7685 99.3596 14.9375C99.8236 15.1032 100.241 15.375 100.612 15.7528C100.984 16.1274 101.279 16.6295 101.497 17.2592C101.716 17.889 101.825 18.6679 101.825 19.5959C101.829 20.4709 101.736 21.2531 101.547 21.9425C101.361 22.6286 101.095 23.2086 100.747 23.6825C100.399 24.1565 99.9793 24.5178 99.4888 24.7663C98.9983 25.0149 98.4464 25.1392 97.8333 25.1392C97.1903 25.1392 96.6202 25.0133 96.123 24.7614C95.6292 24.5095 95.2298 24.1648 94.9249 23.7273C94.62 23.2898 94.4327 22.7893 94.3631 22.2259H96.1777C96.2705 22.6302 96.4595 22.9517 96.7445 23.1903C97.0328 23.4257 97.3958 23.5433 97.8333 23.5433C98.5392 23.5433 99.0828 23.2367 99.464 22.6236C99.8451 22.0104 100.036 21.1586 100.036 20.0682H99.9661C99.8037 20.3598 99.5932 20.6117 99.3347 20.8239C99.0762 21.0327 98.7828 21.1934 98.4547 21.3061C98.1299 21.4188 97.7852 21.4751 97.4206 21.4751C96.824 21.4751 96.2871 21.3326 95.8098 21.0476C95.3359 20.7625 94.9597 20.3714 94.6813 19.8743C94.4062 19.3771 94.267 18.8087 94.2637 18.169C94.2637 17.5062 94.4161 16.9112 94.7211 16.3842C95.0293 15.8539 95.4585 15.4363 96.0087 15.1314C96.5589 14.8232 97.2019 14.6723 97.9377 14.679ZM97.9426 16.1705C97.5847 16.1705 97.2615 16.2583 96.9732 16.4339C96.6882 16.6063 96.4628 16.8416 96.2971 17.1399C96.1346 17.4349 96.0534 17.7647 96.0534 18.1293C96.0568 18.4905 96.138 18.8187 96.2971 19.1136C96.4595 19.4086 96.6799 19.6423 96.9583 19.8146C97.24 19.987 97.5615 20.0732 97.9228 20.0732C98.1912 20.0732 98.4415 20.0218 98.6735 19.919C98.9055 19.8163 99.1077 19.6738 99.28 19.4915C99.4557 19.3059 99.5916 19.0954 99.6877 18.8601C99.7871 18.6248 99.8352 18.3762 99.8319 18.1143C99.8319 17.7663 99.749 17.4448 99.5833 17.1499C99.4209 16.8549 99.1971 16.6179 98.9121 16.4389C98.6304 16.2599 98.3072 16.1705 97.9426 16.1705ZM107.1 25.1392C106.361 25.1392 105.705 25.0149 105.132 24.7663C104.561 24.5178 104.114 24.178 103.789 23.7472C103.468 23.313 103.309 22.8208 103.312 22.2706C103.309 21.843 103.401 21.4503 103.59 21.0923C103.779 20.7344 104.035 20.4361 104.356 20.1974C104.681 19.9555 105.042 19.8014 105.44 19.7351V19.6655C104.916 19.5495 104.492 19.2827 104.167 18.8651C103.846 18.4441 103.686 17.9586 103.69 17.4084C103.686 16.8847 103.832 16.4174 104.127 16.0064C104.422 15.5954 104.827 15.2723 105.34 15.0369C105.854 14.7983 106.441 14.679 107.1 14.679C107.753 14.679 108.335 14.7983 108.845 15.0369C109.359 15.2723 109.763 15.5954 110.058 16.0064C110.357 16.4174 110.506 16.8847 110.506 17.4084C110.506 17.9586 110.342 18.4441 110.014 18.8651C109.689 19.2827 109.27 19.5495 108.756 19.6655V19.7351C109.154 19.8014 109.512 19.9555 109.83 20.1974C110.151 20.4361 110.406 20.7344 110.595 21.0923C110.788 21.4503 110.884 21.843 110.884 22.2706C110.884 22.8208 110.721 23.313 110.396 23.7472C110.072 24.178 109.624 24.5178 109.054 24.7663C108.487 25.0149 107.836 25.1392 107.1 25.1392ZM107.1 23.7173C107.481 23.7173 107.813 23.6527 108.095 23.5234C108.376 23.3909 108.595 23.2053 108.751 22.9666C108.907 22.728 108.986 22.4529 108.99 22.1413C108.986 21.8165 108.902 21.5298 108.736 21.2812C108.574 21.0294 108.35 20.8321 108.065 20.6896C107.783 20.5471 107.462 20.4759 107.1 20.4759C106.736 20.4759 106.411 20.5471 106.126 20.6896C105.841 20.8321 105.615 21.0294 105.45 21.2812C105.287 21.5298 105.208 21.8165 105.211 22.1413C105.208 22.4529 105.284 22.728 105.44 22.9666C105.596 23.2019 105.814 23.3859 106.096 23.5185C106.381 23.651 106.716 23.7173 107.1 23.7173ZM107.1 19.0788C107.412 19.0788 107.687 19.0159 107.926 18.8899C108.168 18.764 108.358 18.5883 108.497 18.3629C108.637 18.1375 108.708 17.8774 108.711 17.5824C108.708 17.2907 108.638 17.0355 108.502 16.8168C108.366 16.5947 108.177 16.424 107.936 16.3047C107.694 16.1821 107.415 16.1207 107.1 16.1207C106.779 16.1207 106.495 16.1821 106.25 16.3047C106.008 16.424 105.819 16.5947 105.683 16.8168C105.551 17.0355 105.486 17.2907 105.49 17.5824C105.486 17.8774 105.552 18.1375 105.688 18.3629C105.828 18.585 106.018 18.7607 106.26 18.8899C106.505 19.0159 106.785 19.0788 107.1 19.0788ZM116.364 25L120.694 16.429V16.3594H115.668V14.8182H122.603V16.3942L118.278 25H116.364ZM128.349 14.8182V25H126.504V16.6129H126.445L124.063 18.1342V16.4439L126.594 14.8182H128.349ZM134.407 25V23.6676L137.942 20.2024C138.28 19.861 138.561 19.5578 138.787 19.2926C139.012 19.0275 139.181 18.7706 139.294 18.522C139.407 18.2734 139.463 18.0083 139.463 17.7266C139.463 17.4051 139.39 17.13 139.244 16.9013C139.098 16.6693 138.898 16.4903 138.643 16.3643C138.387 16.2384 138.097 16.1754 137.773 16.1754C137.438 16.1754 137.144 16.245 136.893 16.3842C136.641 16.5201 136.445 16.714 136.306 16.9659C136.17 17.2178 136.102 17.5178 136.102 17.8658H134.347C134.347 17.2195 134.495 16.6577 134.79 16.1804C135.085 15.7031 135.491 15.3336 136.008 15.0717C136.528 14.8099 137.125 14.679 137.797 14.679C138.48 14.679 139.08 14.8066 139.597 15.0618C140.114 15.317 140.515 15.6667 140.8 16.1108C141.089 16.5549 141.233 17.062 141.233 17.6321C141.233 18.0133 141.16 18.3878 141.014 18.7557C140.868 19.1236 140.611 19.5312 140.243 19.9787C139.879 20.4261 139.367 20.968 138.707 21.6044L136.952 23.3892V23.4588H141.387V25H134.407ZM146.866 25.1939C146.047 25.1939 145.344 24.9867 144.758 24.5724C144.174 24.1548 143.725 23.5533 143.41 22.7678C143.099 21.9789 142.943 21.0294 142.943 19.919C142.946 18.8087 143.104 17.8641 143.415 17.0852C143.73 16.303 144.179 15.7064 144.763 15.2955C145.349 14.8845 146.05 14.679 146.866 14.679C147.681 14.679 148.382 14.8845 148.969 15.2955C149.555 15.7064 150.004 16.303 150.316 17.0852C150.631 17.8674 150.788 18.812 150.788 19.919C150.788 21.0327 150.631 21.9839 150.316 22.7727C150.004 23.5582 149.555 24.1581 148.969 24.5724C148.385 24.9867 147.684 25.1939 146.866 25.1939ZM146.866 23.6378C147.502 23.6378 148.004 23.3246 148.372 22.6982C148.743 22.0684 148.929 21.142 148.929 19.919C148.929 19.1103 148.844 18.4309 148.675 17.8807C148.506 17.3305 148.268 16.9162 147.959 16.6378C147.651 16.3561 147.287 16.2152 146.866 16.2152C146.233 16.2152 145.732 16.5301 145.364 17.1598C144.996 17.7862 144.811 18.706 144.807 19.919C144.804 20.7311 144.885 21.4138 145.051 21.9673C145.22 22.5208 145.459 22.9384 145.767 23.2202C146.075 23.4986 146.441 23.6378 146.866 23.6378ZM156.203 25.1939C155.385 25.1939 154.682 24.9867 154.096 24.5724C153.512 24.1548 153.063 23.5533 152.748 22.7678C152.437 21.9789 152.281 21.0294 152.281 19.919C152.284 18.8087 152.442 17.8641 152.753 17.0852C153.068 16.303 153.517 15.7064 154.1 15.2955C154.687 14.8845 155.388 14.679 156.203 14.679C157.019 14.679 157.72 14.8845 158.306 15.2955C158.893 15.7064 159.342 16.303 159.654 17.0852C159.969 17.8674 160.126 18.812 160.126 19.919C160.126 21.0327 159.969 21.9839 159.654 22.7727C159.342 23.5582 158.893 24.1581 158.306 24.5724C157.723 24.9867 157.022 25.1939 156.203 25.1939ZM156.203 23.6378C156.84 23.6378 157.342 23.3246 157.71 22.6982C158.081 22.0684 158.267 21.142 158.267 19.919C158.267 19.1103 158.182 18.4309 158.013 17.8807C157.844 17.3305 157.605 16.9162 157.297 16.6378C156.989 16.3561 156.624 16.2152 156.203 16.2152C155.57 16.2152 155.07 16.5301 154.702 17.1598C154.334 17.7862 154.149 18.706 154.145 19.919C154.142 20.7311 154.223 21.4138 154.389 21.9673C154.558 22.5208 154.797 22.9384 155.105 23.2202C155.413 23.4986 155.779 23.6378 156.203 23.6378ZM165.623 25L169.954 16.429V16.3594H164.927V14.8182H171.863V16.3942L167.537 25H165.623ZM177.012 25.1939C176.193 25.1939 175.491 24.9867 174.904 24.5724C174.321 24.1548 173.872 23.5533 173.557 22.7678C173.245 21.9789 173.089 21.0294 173.089 19.919C173.093 18.8087 173.25 17.8641 173.562 17.0852C173.877 16.303 174.326 15.7064 174.909 15.2955C175.496 14.8845 176.197 14.679 177.012 14.679C177.827 14.679 178.528 14.8845 179.115 15.2955C179.702 15.7064 180.151 16.303 180.462 17.0852C180.777 17.8674 180.935 18.812 180.935 19.919C180.935 21.0327 180.777 21.9839 180.462 22.7727C180.151 23.5582 179.702 24.1581 179.115 24.5724C178.532 24.9867 177.831 25.1939 177.012 25.1939ZM177.012 23.6378C177.648 23.6378 178.151 23.3246 178.518 22.6982C178.89 22.0684 179.075 21.142 179.075 19.919C179.075 19.1103 178.991 18.4309 178.822 17.8807C178.653 17.3305 178.414 16.9162 178.106 16.6378C177.798 16.3561 177.433 16.2152 177.012 16.2152C176.379 16.2152 175.879 16.5301 175.511 17.1598C175.143 17.7862 174.957 18.706 174.954 19.919C174.951 20.7311 175.032 21.4138 175.197 21.9673C175.366 22.5208 175.605 22.9384 175.913 23.2202C176.222 23.4986 176.588 23.6378 177.012 23.6378ZM189.823 25.1939C189.004 25.1939 188.301 24.9867 187.715 24.5724C187.131 24.1548 186.682 23.5533 186.367 22.7678C186.056 21.9789 185.9 21.0294 185.9 19.919C185.903 18.8087 186.061 17.8641 186.372 17.0852C186.687 16.303 187.136 15.7064 187.72 15.2955C188.306 14.8845 189.007 14.679 189.823 14.679C190.638 14.679 191.339 14.8845 191.926 15.2955C192.512 15.7064 192.961 16.303 193.273 17.0852C193.588 17.8674 193.745 18.812 193.745 19.919C193.745 21.0327 193.588 21.9839 193.273 22.7727C192.961 23.5582 192.512 24.1581 191.926 24.5724C191.342 24.9867 190.641 25.1939 189.823 25.1939ZM189.823 23.6378C190.459 23.6378 190.961 23.3246 191.329 22.6982C191.7 22.0684 191.886 21.142 191.886 19.919C191.886 19.1103 191.801 18.4309 191.632 17.8807C191.463 17.3305 191.225 16.9162 190.916 16.6378C190.608 16.3561 190.244 16.2152 189.823 16.2152C189.19 16.2152 188.689 16.5301 188.321 17.1598C187.953 17.7862 187.768 18.706 187.764 19.919C187.761 20.7311 187.842 21.4138 188.008 21.9673C188.177 22.5208 188.416 22.9384 188.724 23.2202C189.032 23.4986 189.398 23.6378 189.823 23.6378ZM195.496 25L199.827 16.429V16.3594H194.8V14.8182H201.736V16.3942L197.411 25H195.496Z" fill="white"/>
</svg>
